<svg width="129" height="48" viewBox="0 0 129 48" fill="none" xmlns="http://www.w3.org/2000/svg">
<g clip-path="url(#clip0_0_182)">
<path fill-rule="evenodd" clip-rule="evenodd" d="M100.092 31.6175C103.391 31.6175 106.074 28.9876 106.074 25.755C106.074 22.5222 103.391 19.8923 100.092 19.8923C96.7933 19.8923 94.1095 22.5222 94.1095 25.755C94.1095 28.9876 96.7933 31.6175 100.092 31.6175ZM106.074 11.1852H106.236H108.908V34.4148H106.074V32.0954C104.438 33.5811 102.329 34.395 100.092 34.395C95.2307 34.395 91.2757 30.519 91.2757 25.755C91.2757 20.9906 95.2307 17.1148 100.092 17.1148C102.329 17.1148 104.438 17.9285 106.074 19.4143V11.1852ZM41.3164 31.5152C44.615 31.5152 47.2986 28.8853 47.2986 25.6526C47.2986 22.42 44.615 19.79 41.3164 19.79C38.0177 19.79 35.3341 22.42 35.3341 25.6526C35.3341 28.8853 38.0177 31.5152 41.3164 31.5152ZM35.3341 19.3123C36.9697 17.8265 39.0793 17.0126 41.3164 17.0126C46.1776 17.0126 50.1327 20.8885 50.1327 25.6526C50.1327 30.4167 46.1776 34.2926 41.3164 34.2926C39.0793 34.2926 36.9697 33.4789 35.3341 31.9929V40.2222H32.5V16.9926H35.3341V19.3123ZM55.5402 24.3036C56.178 21.6782 58.5547 19.793 61.2656 19.793C63.9412 19.793 66.1824 21.6379 66.7797 24.3036H55.5402ZM61.2656 16.9926C56.4772 16.9926 52.5817 20.9006 52.5817 25.7037C52.5817 30.507 56.4772 34.4148 61.2656 34.4148C63.9471 34.4148 66.4081 33.4078 68.0188 31.6519L68.8556 30.7392L68.9634 30.6214L68.8461 30.5128L67.0268 28.8342L66.9095 28.7257L66.801 28.8435L65.9643 29.7563C64.897 30.9198 63.1406 31.6146 61.2656 31.6146C58.5547 31.6146 56.1782 29.7294 55.5402 27.1038H69.7243V25.7037C69.7243 20.819 66.0087 16.9926 61.2656 16.9926ZM125.666 25.7038C125.666 28.963 122.982 31.6145 119.683 31.6145C116.385 31.6145 113.701 28.963 113.701 25.7038C113.701 22.4444 116.385 19.7929 119.683 19.7929C122.982 19.7929 125.666 22.4444 125.666 25.7038ZM119.683 16.9926C114.822 16.9926 110.867 20.9004 110.867 25.7038C110.867 30.507 114.822 34.4148 119.683 34.4148C124.545 34.4148 128.5 30.507 128.5 25.7038C128.5 20.9004 124.545 16.9926 119.683 16.9926ZM80.2547 16.9926C78.2855 16.9926 76.4093 17.7425 74.9326 19.1122V16.9926H72.1735V34.4148H74.9326V25.524C74.9326 22.3519 77.3201 19.7711 80.2547 19.7711C83.1898 19.7711 85.5779 22.3519 85.5779 25.524V34.4148H88.3364V25.524C88.3364 20.8198 84.711 16.9926 80.2547 16.9926Z" fill="#1A2022"/>
<path fill-rule="evenodd" clip-rule="evenodd" d="M0.5 27.7777H13.8333V40.8148L27.1667 27.7777V14.7407H13.8333L0.5 27.7777Z" fill="#FF4876"/>
</g>
<defs>
<clipPath id="clip0_0_182">
<rect width="128" height="48" fill="white" transform="translate(0.5)"/>
</clipPath>
</defs>
</svg>
